<svg viewBox="0 0 900 243" fill="none" xmlns="http://www.w3.org/2000/svg">
<path d="M0 162L21.5 169C43 176 86 190 128.8 203C171.7 216 214.3 228 257.2 235.5C300 243 343 246 385.8 233.5C428.7 221 471.3 193 514.2 185.5C557 178 600 191 642.8 198.8C685.7 206.7 728.3 209.3 771.2 209.7C814 210 857 208 878.5 207L900 206V1H878.5C857 1 814 1 771.2 1C728.3 1 685.7 1 642.8 1C600 1 557 1 514.2 1C471.3 1 428.7 1 385.8 1C343 1 300 1 257.2 1C214.3 1 171.7 1 128.8 1C86 1 43 1 21.5 1H0V162Z" fill="#ACD3C6"/>
<path d="M0 180L21.5 172.3C43 164.7 86 149.3 128.8 141.8C171.7 134.3 214.3 134.7 257.2 134.7C300 134.7 343 134.3 385.8 145.7C428.7 157 471.3 180 514.2 187.7C557 195.3 600 187.7 642.8 183C685.7 178.3 728.3 176.7 771.2 168.7C814 160.7 857 146.3 878.5 139.2L900 132V1H878.5C857 1 814 1 771.2 1C728.3 1 685.7 1 642.8 1C600 1 557 1 514.2 1C471.3 1 428.7 1 385.8 1C343 1 300 1 257.2 1C214.3 1 171.7 1 128.8 1C86 1 43 1 21.5 1H0V180Z" fill="#83AEA3"/>
<path d="M0 141L21.5 139C43 137 86 133 128.8 130.3C171.7 127.7 214.3 126.3 257.2 124C300 121.7 343 118.3 385.8 118C428.7 117.7 471.3 120.3 514.2 121.5C557 122.7 600 122.3 642.8 128.7C685.7 135 728.3 148 771.2 147.3C814 146.7 857 132.3 878.5 125.2L900 118V1H878.5C857 1 814 1 771.2 1C728.3 1 685.7 1 642.8 1C600 1 557 1 514.2 1C471.3 1 428.7 1 385.8 1C343 1 300 1 257.2 1C214.3 1 171.7 1 128.8 1C86 1 43 1 21.5 1H0V141Z" fill="#5B8A81"/>
<path d="M0 97L21.5 97.3C43 97.7 86 98.3 128.8 94.5C171.7 90.7 214.3 82.3 257.2 77.8C300 73.3 343 72.7 385.8 74C428.7 75.3 471.3 78.7 514.2 78.2C557 77.7 600 73.3 642.8 73.3C685.7 73.3 728.3 77.7 771.2 80.5C814 83.3 857 84.7 878.5 85.3L900 86V0H878.5C857 0 814 0 771.2 0C728.3 0 685.7 0 642.8 0C600 0 557 0 514.2 0C471.3 0 428.7 0 385.8 0C343 0 300 0 257.2 0C214.3 0 171.7 0 128.8 0C86 0 43 0 21.5 0H0V97Z" fill="#336861"/>
<path d="M0 49L21.5 48.7C43 48.3 86 47.7 128.8 51.8C171.7 56 214.3 65 257.2 68.8C300 72.7 343 71.3 385.8 68.7C428.7 66 471.3 62 514.2 55C557 48 600 38 642.8 37.2C685.7 36.3 728.3 44.7 771.2 44.8C814 45 857 37 878.5 33L900 29V1H878.5C857 1 814 1 771.2 1C728.3 1 685.7 1 642.8 1C600 1 557 1 514.2 1C471.3 1 428.7 1 385.8 1C343 1 300 1 257.2 1C214.3 1 171.7 1 128.8 1C86 1 43 1 21.5 1H0V49Z" fill="#004744"/>
</svg>
